<svg xmlns="http://www.w3.org/2000/svg" xmlns:xlink="http://www.w3.org/1999/xlink" viewBox="0 0 400 300" width="406" height="306" class="illustration styles_illustrationTablet__1DWOa"><defs><linearGradient id="linear-gradient" x1="173.65" y1="160.93" x2="152.98" y2="198.05" gradientUnits="userSpaceOnUse"><stop offset="0" stop-color="gray"></stop><stop offset="1" stop-color="#fff"></stop></linearGradient><linearGradient id="linear-gradient-2" x1="278.14" y1="172.81" x2="210.02" y2="238.31" xlink:href="#linear-gradient"></linearGradient><linearGradient id="linear-gradient-3" x1="342.1" y1="102.21" x2="273.97" y2="167.72" xlink:href="#linear-gradient"></linearGradient></defs><title>PP</title><g style="isolation: isolate;"><g id="Layer_2" data-name="Layer 2"><path d="M194.28,287.67,14.56,181.45C8.84,178.24,3.93,173,9.51,169.5l180.37-104c2.71-1.68,6.82-2.78,9.57-1.18L388.11,173.86c5.72,3.32,6.75,12.6,1,15.93L218,287.5A23.9,23.9,0,0,1,194.28,287.67Z" fill="#17619e"></path><polygon points="19.08 163.99 204.03 273.15 361.19 178.56 175.53 73.82 19.08 163.99" fill="#fff"></polygon><polygon points="33.15 155.88 207.77 252.07 339.2 177.16 165.88 79.38 33.15 155.88" fill="#68e1fd"></polygon><polygon points="33.15 155.88 91.64 122.17 268.74 217.32 207.77 252.07 33.15 155.88" fill="#077991" opacity="0.29"></polygon><g opacity="0.3"><path d="M120.59,144.8c-9.28,10.77-9.82,24.9-1.47,36.12,1,1.3,3.57.12,2.59-1.18-7.84-10.53-7.23-23.65,1.47-33.75C124.26,144.73,121.66,143.55,120.59,144.8Z" fill="#fff"></path><path d="M104,154.34c1.42-1-.71-2.69-2.12-1.66-2.85,2.08-3,5.26-3.38,8.13-.47,3.69-.21,7.18,2,10.52.88,1.34,3.47.16,2.59-1.18a12.18,12.18,0,0,1-1.69-8.24C101.64,159.53,101.66,156.08,104,154.34Z" fill="#fff"></path><path d="M270.62,158.74c-.69-1.4-3.59-.79-2.89.62,2.36,4.79,1.65,9.76-2.06,14-1.09,1.25,1.51,2.43,2.59,1.18C272.36,169.86,273.24,164,270.62,158.74Z" fill="#fff"></path><path d="M282.53,164c-.65-1.41-3.55-.8-2.89.62a6.45,6.45,0,0,1-.11,6c-.75,1.37,1.83,2.57,2.59,1.18A8.38,8.38,0,0,0,282.53,164Z" fill="#fff"></path></g><path d="M150.23,142.67c-11.24,6.13-41.79,29.77-52.54,36.68,11,6.25,76.58,38.27,80.55,39.94l46.86-32.75Z" fill="url(#linear-gradient)" style="mix-blend-mode: multiply;"></path><path d="M219.88,235c6.07-3.28,36.84-20.27,36.84-20.27-.85-2.52-1.66-4.8-4.17-6.48l-53.94,19.61Z" fill="url(#linear-gradient-2)" style="mix-blend-mode: multiply;"></path><ellipse cx="190.83" cy="154.19" rx="57.74" ry="40.97" fill="#ef5a34"></ellipse><path d="M236.07,167.47c-17.59,12.69-43.25,13.69-63,5.77-10.61-4.26-19.77-11.75-24.27-22.46a37.42,37.42,0,0,1-1.31-24.3c-9,7.22-14.43,16.7-14.43,27.08,0,22.63,25.85,41,57.74,41s57.74-18.34,57.74-41c0-.29,0-.57,0-.86A39,39,0,0,1,236.07,167.47Z" fill="#e24b2d"></path><path d="M180,151.89s-.58,11,15.39,16.56,26.14,6.1,26.14,6.1,9.58,20.91,14.81,28.75,13.36,12.78,18,12.49,1.45-7-8.71-13.94c0,0-8.42-31.37-13.36-36.6s-33.69-13.36-33.69-13.36Z" fill="#fad1a6"></path><path d="M269.48,196.95c-1.84-.73-4-.48-5.93-.89l-.74-.19c-3.89,0-7.6-1.52-9.36-5.47s-2.29-9-3.56-13.31a68.82,68.82,0,0,1-2.12-8.85,31.91,31.91,0,0,0-7.63-11.12c-11.62-10.17-41.53-18.3-42.7-18.3s1.16,13.07,1.16,13.07l19.12,10.61,17.12,5.91S245.44,190,248.4,198.1c1.23,3.37,4.68,3.46,7.73,3.22a34.65,34.65,0,0,1,4.82-.3c1.35.08,2.56.36,3.74.49a6.27,6.27,0,0,0,4.52-1C270.69,199.52,271.41,197.72,269.48,196.95Z" fill="#fad1a6"></path><path d="M163.94,118.53s-11.1,5.08-14.75,10.47S160,146.28,162.51,148.5a13.26,13.26,0,0,1,3.49,5.87l2.85,4.12s2.38-2.7,2.7-5.39-1-7.45-2.38-8.88-10.05-11.9-9.07-12.53,9.71-.68,11.85,4.1,16.87-12.66,16.87-12.66,10.32-2.7,11.91-1.28,10,10.94,10.47,12.21,1.59,7.45,2.85,6.19.79-3.65.79-3.65.91,5.87,3.39,4.92-.1-9.36,0-10-8-13.67-13.54-16.83-22.84-.33-25.38,0S163.94,118.53,163.94,118.53Z" fill="#fad1a6"></path><path d="M163.94,118.53s2.22-1.11,5.08,7.14,2.54,11.1,5.08,14.91A105.18,105.18,0,0,1,180,151.89h18.59l-1.16-13.07s-5-4.28-5.59-7.45S188,118,181.28,115.19s3.28,7.61-2,8.41S169,113.77,163.94,118.53Z" fill="#077991"></path><path d="M180,104.92s.84,7-1.55,10.66-8,1.38-9.8-1-2.41-11.69,0-13S179.44,101.56,180,104.92Z" fill="#fad1a6"></path><path d="M175.26,107.22s7.44-.26,7.7-2.69-.9-5.52-7.7-6.93S165.2,100,163.4,104s1.25,10.44,5.21,10.56,1-.91,1.26-4A3.93,3.93,0,0,1,175.26,107.22Z" fill="#354e53"></path><path d="M165.87,102.53s.38-5-4.69-5.24-5.57,8.46-2.47,10,6.27-.63,6.27-.63" fill="#354e53"></path><path d="M236,137.25a22.82,22.82,0,0,0-9-9.21c-1.79-1-3.4,1.74-1.61,2.75a19.76,19.76,0,0,1,7.82,8.06C234.21,140.68,237,139.07,236,137.25Z" fill="#fcb1a7"></path><path d="M236.54,141.08a1.6,1.6,0,0,0,0,3.19A1.6,1.6,0,0,0,236.54,141.08Z" fill="#fcb1a7"></path><path d="M284.6,165.27c6.07-3.28,35.34-21.93,35.34-21.93-.85-2.52-.16-3.14-2.66-4.82l-53.94,19.61Z" fill="url(#linear-gradient-3)" style="mix-blend-mode: multiply;"></path><path d="M319.69,107.94,315.29,143a6.32,6.32,0,0,0,4.64.31l4-35.12A4.38,4.38,0,0,1,319.69,107.94Z" fill="#974c13"></path><polyline points="298.82 104.26 298.58 106.67 344.14 111.66 344.47 108.67" fill="#d3462a"></polyline><ellipse cx="321.42" cy="108.67" rx="12.17" ry="22.93" transform="translate(179.58 416.9) rotate(-83.97)" fill="#d3462a"></ellipse><ellipse cx="321.63" cy="106.67" rx="12.17" ry="22.93" transform="translate(181.76 415.32) rotate(-83.97)" fill="#ef5a34"></ellipse><path d="M324.09,106.94l7.24-63.43-3.54-.32-8,63.62A3.4,3.4,0,0,0,324.09,106.94Z" fill="#974c13"></path><ellipse cx="326.67" cy="48.78" rx="29.14" ry="48.45" transform="translate(234.02 365.82) rotate(-82.2)" fill="#68e1fd"></ellipse><path d="M333.63,32.33,292.39,66.71a68.4,68.4,0,0,0,38.12,11.67Z" fill="#17619e" opacity="0.61"></path><path d="M334,32.3c-2.22-.62-52.42,2.18-52.42,2.18S291.11,18.85,314.5,20Z" fill="#17619e" opacity="0.61"></path><path d="M333.63,32.33,355.31,28s21,8.69,19.31,27.78Z" fill="#17619e" opacity="0.61"></path></g></g></svg>